<?xml version="1.0" encoding="UTF-8"?>
<!-- Created with Inkscape (http://www.inkscape.org/) -->
<svg version="1.1" viewBox="0 0 648.43 698.03" preserveAspectRatio="xMidYMid meet" xmlns="http://www.w3.org/2000/svg" xmlns:cc="http://creativecommons.org/ns#" xmlns:dc="http://purl.org/dc/elements/1.1/" xmlns:rdf="http://www.w3.org/1999/02/22-rdf-syntax-ns#">
 <title>Vidhan Sabha constituencies of Delhi</title>
 <metadata>
  <rdf:RDF>
   <cc:Work rdf:about="">
    <dc:format>image/svg+xml</dc:format>
    <dc:type rdf:resource="http://purl.org/dc/dcmitype/StillImage"/>
    <dc:title>Vidhan Sabha constituencies of Delhi</dc:title>
    <dc:date>20131217</dc:date>
    <dc:creator>
     <cc:Agent>
      <dc:title>GÖran Jönsson</dc:title>
     </cc:Agent>
    </dc:creator>
    <dc:rights>
     <cc:Agent>
      <dc:title>GÖran Jönsson</dc:title>
     </cc:Agent>
    </dc:rights>
    <dc:publisher>
     <cc:Agent>
      <dc:title>GÖran Jönsson</dc:title>
     </cc:Agent>
    </dc:publisher>
    <dc:identifier>Vidhan Sabha constituencies of Delhi</dc:identifier>
    <dc:source>2013_Delhi_assembly_election_map.svg</dc:source>
    <cc:license rdf:resource="http://creativecommons.org/licenses/by-sa/4.0/"/>
   </cc:Work>
   <cc:License rdf:about="http://creativecommons.org/licenses/by-sa/4.0/">
    <cc:permits rdf:resource="http://creativecommons.org/ns#Reproduction"/>
    <cc:permits rdf:resource="http://creativecommons.org/ns#Distribution"/>
    <cc:requires rdf:resource="http://creativecommons.org/ns#Notice"/>
    <cc:requires rdf:resource="http://creativecommons.org/ns#Attribution"/>
    <cc:permits rdf:resource="http://creativecommons.org/ns#DerivativeWorks"/>
    <cc:requires rdf:resource="http://creativecommons.org/ns#ShareAlike"/>
   </cc:License>
  </rdf:RDF>
 </metadata>
 <g transform="translate(0 6.0314)">
  <path d="m292.88 14.47-26.397 52.042-23.164 0.91322-20.368-3.3946-11.542-3.3946-8.8259 2.0368-6.7892 16.973-8.8259-0.67892-7.4681-8.8259-6.1103 4.0735-1.3578 11.542-8.8259 5.4313-7.4681-5.4313-6.7892 12.22-1.3578 12.899 6.1103 10.863-1.3578 14.257 4.7524 15.615-3.3946 6.7892-7.4681 14.257 11.542 13.578 3.3946 8.8259-1.3578 8.147 1.3578 4.0735-12.899 25.799 12.899 14.936 2.7157 5.4313-2.0368 10.184-8.8259 17.652v6.7892l-5.4313 6.7892-14.257 2.0368-6.7892 1.3578-7.4681 8.8259-4.7524 10.863 0.67892 8.147 8.8259 8.8259 6.1102 10.184 2.7157 4.0735-10.184 11.542-17.652-14.257-9.5048 0.67892-8.8259 6.7892-23.083-7.4681-31.909 63.818-8.147 2.7157-16.973-2.7157-4.0735 9.5048 6.1102 40.735 23.083 14.257 2.7157 8.147 8.147 5.4313 14.936 15.615 1.3578 5.4313-6.7892 11.542 4.0735 6.7892 10.184 1.3578 15.615-10.184 14.257 5.4313 16.973-6.7892 29.872 9.5048 30.551-18.331 44.809 19.01 7.4681-4.0735 0.67892-8.147-18.331-14.936 2.0368-9.5048 10.184-3.3946 10.184 12.899 14.257 5.4313 11.542 4.7524 10.863 14.936 20.368 6.1102 8.8259-8.147 12.899 1.3578 12.899 16.294 26.478 19.689-10.184 25.12 5.4313 16.294 5.4313 19.689 12.221 18.331 17.652 5.4313 10.184 3.3946 12.899 12.899v8.147l12.221 12.899 2.0368 5.4313 17.652-5.4313 35.983-0.67892 12.22-2.0368 32.588-19.01 3.3946-13.578-1.3578-13.578-8.147-13.578-12.899-5.4313 2.0368-11.542 8.147-11.542 12.22-10.184 17.652-2.0368 21.046-14.936 14.936 1.3578 16.294 8.8259 14.936 1.3578 23.083-17.652 3.3946-7.4681 5.4313-2.7157 4.7524 2.0368v-11.542l-12.22-16.294-16.973-22.404-15.615-15.615-7.4681-19.689-0.67892-14.936 10.863-17.652 10.863-10.184 11.542-4.0735 21.725-8.147 4.0735-12.899-3.3946-15.615-10.184-11.542-8.147-5.4313-9.5048-9.5048 4.7524-11.542v-11.542l2.7157-13.578 2.0368-14.257 8.8259-2.0368 5.4313-10.184-4.7524-10.184-6.7892-10.184 4.7524-14.257-2.7157-6.1102-15.615-1.3578-13.578 2.0368-6.1102 5.4313-9.5048-2.0368-2.0368-8.8259-0.67891-10.184-7.4681-12.221-12.899-7.4681h-9.5048l-8.147-5.4313 0.67891-15.615-6.7892-6.7892-10.184-1.3578-8.147-14.257-14.936-19.01 7.4681-8.147-12.22-0.67892-8.147-0.67891-10.184-5.4313-6.7892-10.863v-14.936-8.147l25.12 4.0735 4.0735-33.267-6.7892-10.863 0.67892-19.689-12.22-13.578-19.01-0.67892-5.4313 6.1103-20.368 0.67892-9.5048 6.7892-12.899 12.899-10.184 6.1103-10.184-4.7524 4.0735-14.936-6.7892-13.578-21.046-2.7157-16.294-10.863-19.689-3.3946-6.7892-6.7892-4.0735-8.8259-12.899 14.936-10.184 1.3578z" style="fill:#cccccc;stroke-linecap:round;stroke-linejoin:round;stroke-width:1.063;stroke:#999999"/>
  <path d="m266.31 66.577 0.0889 7.6374 12.899 8.8259 5.4313 4.0735 4.0735 5.4313 6.7892 8.8259 7.4681 5.4313-0.67892 7.4681-6.7892 8.8259-6.1102 10.184 9.5048 8.147 4.0735 10.184-1.3578 5.4313 5.4313 7.4681 0.67892 9.5048 7.4681-6.1102 6.7892 2.7157 8.147-9.5048 13.578 8.147 2.7157 6.7892 12.899 7.4681 8.147-9.5048-2.0368-6.1102 9.5048-4.7524 4.7524-4.0735-8.147-3.3946 3.3946-8.147 12.899-1.3578 4.0735-5.4313-2.0368-6.7892 9.5048-1.3578 8.8259-4.0735 5.4313-2.7157 13.578 3.3946 14.936-0.67892 8.147 3.3946 4.0735 2.0368 4.0735 7.4681 8.8259 4.0735 10.184-0.67891 4.0735-4.7524" style="fill:none;stroke-linecap:round;stroke-linejoin:round;stroke-width:1.063;stroke:#999999"/>
  <path d="m152.1 161.7 6.9168-2.7915 4.3206-4.8007 8.6412 4.3206 5.7608 8.1611 6.7209-2.4003 8.1611 1.4402 7.201 7.201 7.201 9.1213 3.3605 3.3605 4.3206 3.3605 5.2807-2.8804 5.7608 1.9203 3.8405-3.8405 1.9203-9.6013 8.6412 6.7209 6.7209-0.48007 2.4003-8.1611 7.6811 0.48006 12.002-11.042 7.201 10.561 1.9203 8.1611-1.4402 7.6811-1.9203 3.3605 4.8007 7.6811-1.4402 8.6412-2.4003 5.2807 3.3605 7.201-1.9203 6.2409 1.9203 7.201 6.7209 6.2409 9.6013 5.7608 8.6412 2.8804 7.6811 1.9203-0.96013-4.3206-5.7608-4.8007-3.8405-1.9203 0.48007-8.6412 3.3605-3.8405 5.2807 1.4402 3.3605-4.8007 6.7209 2.8804 5.2807-4.8007 4.3206-0.96014 0.96013-6.2409-0.96013-4.3206 4.8007-4.8007 3.8405-6.7209 4.8007-7.201 6.7209 3.3605 4.8007-0.96013 6.2409 1.9203 4.8007-1.9203-4.3206-6.7209-2.1887-3.8575" style="fill:none;stroke-linecap:round;stroke-linejoin:round;stroke-width:1.063;stroke:#999999"/>
  <path d="m485.94 142.59-3.3605 9.1213 0.96014 7.201 0.96013 8.6412 2.8804 10.561 5.7608 11.042 7.6811 7.201 1.9203 3.8405 3.8405-0.96014 5.7608 2.8804 3.3605 5.7608 1.4402 7.6811 2.4003 6.7209-2.4003 10.561-1.9203 8.1611-9.6013-0.48006-3.3605-11.522-2.8804-5.2807h-6.2409l-5.2807 0.96014-5.2807-0.96014 0.96014 6.2409 3.3605 5.2807-2.8804 2.8804-8.6412-0.48006-4.8007-3.8405-4.8007-4.3206-10.081-1.4402-7.6811-4.8007-6.2409-3.3605-7.6811-3.3605h-10.081l-4.6979 1.3943-1.0629-4.7548 4.3206-6.7209 3.8405-2.8804-5.2807-3.8405-1.4402-2.8804 4.8007-6.7209 6.2409-3.3605 6.2409-5.7608-2.4003-3.8405-10.561-5.7608-3.8405 0.96014-4.8007 0.48006h-5.2807l-2.4003-2.8804-0.48007-2.4003-4.8007 2.4003-5.2807-2.4003-6.2409-3.3605-7.6811-0.96013-6.7209-0.96013" style="fill:none;stroke-linecap:round;stroke-linejoin:round;stroke-width:1.063;stroke:#999999"/>
  <path d="m363.35 189.69 10.727-1.023 6.2409 7.201 6.7209 7.6811-4.3206 4.3206-4.3206 2.4003-4.3206 0.48006 0.96014 4.3206h7.6811l4.8007-0.48006 11.042-7.201 5.2807 7.6811 1.9203 2.8804 5.7608-4.3206 5.7608 5.2807 1.9203-0.96014" style="fill:none;stroke-linecap:round;stroke-linejoin:round;stroke-width:1.063;stroke:#999999"/>
  <path d="m311.49 250.35 4.9875 3.6092 2.8804 1.9203 4.8007-3.8405 2.4003 2.8804 3.8405-1.9203 1.9203-5.7608-4.8007-6.2409 2.8804-2.8804 6.2409 2.4003 5.2807-4.3206 5.2807-3.8405 6.7209-7.201 5.7608-5.7608-1.9203-4.3206 3.3605-4.8007 6.7209-3.8405 3.3605-4.8007-5.3376-7.7839" style="fill:none;stroke-linecap:round;stroke-linejoin:round;stroke-width:1.063;stroke:#999999"/>
  <path d="m280.02 234.78-2.9068 4.3026-8.6412 3.3605-9.6013 6.2409-5.7608-2.4003-1.4402-2.8804-8.1611 5.2807 4.3206 1.4402 1.9203 10.561 3.3605 8.6412 5.2807 5.2807 10.081 0.48007 10.081 1.9203 3.3605 0.48006-0.96014-9.6013 1.9203-6.7209 6.2409-3.3605 6.7209 0.48007 0.96013-6.2409 0.91568-5.4496" style="fill:none;stroke-linecap:round;stroke-linejoin:round;stroke-width:1.063;stroke:#999999"/>
  <path d="m387.41 214.58-5.646 5.2977-7.201 10.081v10.081l-6.7209 3.3605-1.4402 4.3206v2.8804l-4.3206 0.96013-8.6412 2.8804-3.3605 2.4003-4.3206-3.8405-3.8405-4.3206-5.2807-4.8007-0.17724-3.3959" style="fill:none;stroke-linecap:round;stroke-linejoin:round;stroke-width:1.063;stroke:#999999"/>
  <path d="m319.24 255.61-0.72762 3.6126-4.0735 0.84865-4.413-1.1881-4.0735 0.67892-1.6973 2.0368-0.50918 3.3946 3.5643 1.5276 1.5276 1.3578-1.1881 2.5459-3.5643 0.84864-4.0735 2.0368 0.50919 3.0551 1.6973 2.8854 1.6973 2.2065 5.9405 0.50918 7.4681 1.0184 8.6562 0.16973 4.413 0.33946 0.50919-7.4681 0.67892-6.6194 3.734-6.7892 5.2616-1.5276 6.7892-2.2065 2.6268-1.976" style="fill:none;stroke-linecap:round;stroke-linejoin:round;stroke-width:1.063;stroke:#999999"/>
  <path d="m281.76 277.45 2.7767 1.1839 4.0047 0.53779 3.0629-0.14538 4.1582 0.3878 3.2249 0.50918 2.3762-1.6973" style="fill:none;stroke-linecap:round;stroke-linejoin:round;stroke-width:1.063;stroke:#999999"/>
  <path d="m511.49 240.72 0.84865 3.9038v3.3946l-1.3578 3.734v2.7157l6.9589 0.67892 7.2984 3.0551c2.2016 0.97571 4.6694 1.3821 6.7892 2.2065l8.4865 2.7157 5.7708 2.2065 7.1286 1.3578 10.353 0.84864 1.6973-5.2616 2.3762-5.9405 1.1881-4.7524 1.3578-2.5459 3.0551-0.50919 2.2065-2.7157 2.8854-2.5459 1.3578-3.9038 1.3578-2.5459" style="fill:none;stroke-linecap:round;stroke-linejoin:round;stroke-width:1.063;stroke:#999999"/>
  <path d="m575.82 227.65-2.2065 3.3946-1.6973 3.3946-3.0551 2.0368-3.5643 4.0735-3.734 3.0551-2.2065 1.3578v1.6973l-3.2248-0.16973-0.67892-3.0551-1.867-0.50918-1.6973 2.7157-1.867 2.8854-1.3578 3.2249-0.50919 4.9221 1.3578 4.5827 1.5276 2.5459 2.0368 2.7157" style="fill:none;stroke-linecap:round;stroke-linejoin:round;stroke-width:1.063;stroke:#999999"/>
  <path d="m511 254.67-0.3557 4.3766-2.0368 4.413-1.3578 2.8854-0.67891 5.6011-0.16973 26.647 3.734-0.67892 4.9222-1.6973 4.2432-1.6973 8.9956 0.67891 7.9773-0.67891 11.202 0.33945 3.2248-1.0184 1.867-3.3946 5.2616 0.16973 2.3762 0.16973-0.33946-3.734-1.5276-2.3762-1.867-1.867-1.1881-0.50919 1.0184-3.2248-1.5276-2.2065-2.5459-0.84865-2.0368-1.3578-1.5276-1.5276 0.67892-1.867 4.0735 0.16973 6.6194-0.16973 3.734-0.33945 1.1881-1.0184-1.1881-2.3762" style="fill:none;stroke-linecap:round;stroke-linejoin:round;stroke-width:1.063;stroke:#999999"/>
  <path d="m584.3 269.4-0.33945 21.725 0.16973 4.2432-1.1881 2.5459-2.2065-3.5643-1.5276-2.0368-2.5459 0.84864-1.3578 4.7524v3.0551l-0.84865 1.6973h-5.0919l-6.1102 0.50919h-3.0551v2.2065l0.67891 2.5459-2.2065 2.3762-4.2432 2.0368 1.867 1.6973h5.0919l3.7097-0.60622" style="fill:none;stroke-linecap:round;stroke-linejoin:round;stroke-width:1.063;stroke:#999999"/>
  <path d="m506.5 298.69 0.7516 4.8332-0.16972 4.7524v3.0551l6.28 3.734 4.2432 5.0919 4.0735 1.1881 4.2432-1.867 3.3946-2.5459 4.2432 0.16973 4.5827-1.867 4.0735-3.734 6.7892 0.16973 5.5949 0.61603" style="fill:none;stroke-linecap:round;stroke-linejoin:round;stroke-width:1.063;stroke:#999999"/>
  <path d="m560.2 290.28 1.3578 2.2065 0.33946 2.3762-0.84865 3.2249-0.81448 5.2805" style="fill:none;stroke-linecap:round;stroke-linejoin:round;stroke-width:1.063;stroke:#999999"/>
  <path d="m521.91 321.27 4.1804 3.9728 2.0368 4.5827 2.8854 3.734 3.5643 2.0368 3.9038-2.7157 4.413 1.0184 2.7157-2.0368 2.2065-1.0184 1.3578-3.3946 7.8075-0.67891 1.0184 4.0735 3.9038-0.67892 4.7524-1.3578 3.9038-3.3946 1.5276-4.0735-2.7157-3.2248-4.2432-4.413" style="fill:none;stroke-linecap:round;stroke-linejoin:round;stroke-width:1.063;stroke:#999999"/>
  <path d="m564.45 267.03 7.8075 1.0184 12.22 1.3578" style="fill:none;stroke-linecap:round;stroke-linejoin:round;stroke-width:1.063;stroke:#999999"/>
  <path d="m534.57 335.43 1.867 4.0735 2.2065 3.5643 0.67892 4.0735 3.2249 2.7157 8.6562-0.84865 5.9405 2.8854 8.3167 3.9038 3.3946 0.50919 5.7708-2.5459 3.3946-3.9038 3.3946-3.734 1.0184-4.0735-4.0735-3.3946-0.67892-6.1102-3.2248-2.5459-3.9038-4.7524" style="fill:none;stroke-linecap:round;stroke-linejoin:round;stroke-width:1.063;stroke:#999999"/>
  <path d="m630.26 369.35-2.502 4.7713-5.6011 1.5276-8.3167 2.5459-2.3762 2.8854 3.3946 2.8854-2.5459 2.3762-3.0551 3.3946-4.9221 2.7157-0.50919 4.0735 0.67892 1.5276 7.2984-1.6973 3.734-0.67892 0.16972 3.3946-3.2248 3.9038-4.2432 4.7524-4.0735 3.2248-2.7157 2.0368-0.84864 2.7157 2.2065 4.0735 2.7157 2.8854 1.6155 0.89261" style="fill:none;stroke-linecap:round;stroke-linejoin:round;stroke-width:1.063;stroke:#999999"/>
  <path d="m612.81 379.28-6.2738 0.27658-4.413 1.6973-3.3946-1.6973-3.3946-0.50919-2.7157-2.3762-2.8854-1.5276-0.33946-3.5643-0.67892-3.734-1.3578-2.3762-4.7524-0.50919-4.0735 1.867-1.1881 2.7157 2.0368 2.7157 3.734 3.0551 1.3578 2.8854-2.7157 1.867-4.7524 0.50919-4.5827 1.0184-0.33946 3.3946 0.50919 4.0735-2.7157 2.3762-3.0551 2.7157 2.8854 3.2249-1.3578 1.5276 3.9038 2.3762 0.16973 3.2248 1.3578 5.2616 2.0368 5.6011 3.5643 4.2432 1.3578 3.9038 1.6973 2.7157 1.6973 0.84865 2.0368-1.5276-2.2065-3.5643-0.33946-3.9038-2.0368-4.9222 0.67892-4.413 1.0184-3.0551-0.16973-3.734 1.6973-1.1881 1.6973-1.5276-2.8854-4.0735 4.9222 1.6973 4.413 0.50919 5.2616 0.50918 6.5376 0.10685" style="fill:none;stroke-linecap:round;stroke-linejoin:round;stroke-width:1.063;stroke:#999999"/>
  <path d="m587.19 462.72-3.9038 0.67892-7.6378-1.5276-7.8075-2.2065-7.4681-3.3946-2.8854-1.3578-2.3762-5.0919-3.734-4.5827-2.0368-5.9405 0.50919-6.7892-2.7157-4.5827-1.1881-4.7524-1.867-3.0551-2.3762-5.7708-1.0184-2.3762-1.0184-1.1881 4.413-2.0368 5.4313-1.3578 3.9038-1.6973 2.3762-2.3762 3.734-1.3578 4.9221-0.50919 0.67892-3.9038 3.3138 1.3774" style="fill:none;stroke-linecap:round;stroke-linejoin:round;stroke-width:1.063;stroke:#999999"/>
  <path d="m547.13 427.93-3.3946 4.2432-1.0184 3.734 1.867 3.9038-0.16973 4.7524-4.0735 2.7157-1.867 2.0368 1.0184 3.0551 3.0551 4.2432 1.867 4.7524-0.33946 3.5643 2.2065 2.8854 0.84865 3.734 0.84864 3.0551 4.5827 1.3578 3.2248 2.0368 2.3762 2.8854 1.5276 3.9038 3.734 2.2065 1.0184 3.2248-2.7157 2.2065-3.734 1.6973-2.8854 0.67892-0.84865 2.8854 0.50919 5.0919 3.5643 4.413 1.867 5.2616 4.413 1.0184h3.3946l3.3946-1.3578 3.0551-0.50919 1.1881 4.0735 2.0368 5.6011 4.9222 0.50919 7.1286 3.3946 5.2616 0.50919 7.8075 0.16973 5.6011-2.2065 5.9405-0.16973 5.2616-2.2065 6.66 0.33946" style="fill:none;stroke-linecap:round;stroke-linejoin:round;stroke-width:1.063;stroke:#999999"/>
  <path d="m540.51 348.5 0.16973 5.0919 0.16972 4.5827-4.5827 5.7708-1.5276 5.7708-2.8854 6.6194 3.3946 3.9038-1.6973 3.734-2.0368 5.4313 2.7157 3.9038 3.0551 5.2616 3.9038 5.7708-1.5276 6.6194" style="fill:none;stroke-linecap:round;stroke-linejoin:round;stroke-width:1.063;stroke:#999999"/>
  <path d="m578.88 366.65-3.9119 2.2146-4.2432 1.5276 0.16973-3.734 0.67892-6.28-2.2065-3.9038" style="fill:none;stroke-linecap:round;stroke-linejoin:round;stroke-width:1.063;stroke:#999999"/>
  <path d="m584.15 269.44 6.6032 1.3254 5.6011 1.3578 4.2432 1.3578 5.4313-0.84865 5.4313 0.67892h2.8854l3.734-2.3762 5.0919 0.16973 3.3946 1.0184" style="fill:none;stroke-linecap:round;stroke-linejoin:round;stroke-width:1.063;stroke:#999999"/>
  <path d="m565.13 313.36 9.1654-0.50919 6.28 0.33946 6.6194-1.3578 5.2616-4.0735 6.28-0.67892 4.9222-4.5827 7.4681-3.2248 6.1102-3.5643 7.2984-4.5827 5.2616-2.8854 6.2638-1.1073" style="fill:none;stroke-linecap:round;stroke-linejoin:round;stroke-width:1.063;stroke:#999999"/>
  <path d="m572.08 321.17 5.0919-1.867 5.6011-3.5643 5.0919-2.2065 4.5827-1.5276 0.50919 3.5643 0.84865 3.9038 4.413-0.33946 4.413 0.67892 4.7524 1.0184 6.1102-1.6973 4.413-1.1881 3.9038 0.33946" style="fill:none;stroke-linecap:round;stroke-linejoin:round;stroke-width:1.063;stroke:#999999"/>
  <path d="m365.18 251.58 4.0735 5.9405c0.89716 0.5383 0.51875 0.50919 1.0184 0.50919l5.7708 2.0368 5.2616 2.5459 3.734 1.867 3.0551 2.2065 4.2432 1.0184v3.3946l0.50919 5.0919 0.67891 5.0919 3.2249 3.0551 3.3946-3.3946 1.1881-1.867 3.3946 4.7524-0.16973 2.8854 2.5459 4.2432 1.3578 5.7708 0.33946 2.2065 1.867 0.50918v1.6973h-3.9038l-3.9038-1.5276-3.734 0.16973-4.9222-1.5276-6.1102-0.16973-7.2984-0.84864-4.7524-0.50919-2.8854-0.67892 2.7157-3.3946v-2.8854l-3.0551-1.5276h-4.0735l-3.5643 0.16973-0.16973-10.863 1.0184-2.0368 0.16973-2.7157h4.5827l0.84865-2.5459 1.0184-2.0368-3.3946-1.0184-4.0735-0.16973-0.67892-6.28 0.50919-4.0735-3.5643-0.67891-2.8854-2.8854" style="fill:none;stroke-linecap:round;stroke-linejoin:round;stroke-width:1.063;stroke:#999999"/>
  <path d="m560.2 512.29-0.84864 3.3946 1.5276 2.7157-0.67892 4.0735 3.2249 2.7157h3.0551l1.3578 4.5827 0.50919 6.4497 0.67891 4.5827 1.6973 5.4313 0.33946 6.1102 3.734 3.0551 1.867 3.2248 0.50918 4.2432 1.1881 4.5827 0.33946 2.5459" style="fill:none;stroke-linecap:round;stroke-linejoin:round;stroke-width:1.063;stroke:#999999"/>
  <path d="m555.06 494.54-2.4976-1.6002-1.1881-4.0735-3.9038 1.6973-3.3946 3.0551v4.0735l2.7157 2.5459-3.2249 2.3762h-3.5643l-1.6973 2.7157 2.3762 2.5459 0.16972 3.0551-0.33945 4.9221 0.84864 3.3946-2.5459-1.1881-1.6973-3.3946-3.2248 1.5276-2.5459 3.0551-2.0368 1.867-1.1881 0.84864 2.5459 3.5643-2.7157 3.3946-3.734 3.3946-2.3762 2.8854 0.33946 4.413 2.8854 2.8854 2.0368 4.2432 0.84864 2.8854 4.2432 1.867 4.0735 2.0368 5.4313 1.5276 3.734 1.6973 2.8854 5.4313 2.2065 4.0735 1.18 2.174" style="fill:none;stroke-linecap:round;stroke-linejoin:round;stroke-width:1.063;stroke:#999999"/>
  <path d="m504.87 593.08-3.2248-4.413-0.33946-6.6194-0.33946-6.4497 0.67892-4.9221 2.8854-2.3762-0.67891-5.2616-1.1881-4.5827 2.2065-4.5827 1.0184-5.4313-1.867-5.6011 0.50918-4.2432 3.734-1.867 2.8854-4.0735 2.5459-2.0368 4.7524-2.5459 3.9038-3.5643 3.3946-4.5827 2.3762 2.2065" style="fill:none;stroke-linecap:round;stroke-linejoin:round;stroke-width:1.063;stroke:#999999"/>
  <path d="m496.72 610.39h-4.9222l-5.0919-1.867-4.0735-0.33946-1.5276-4.413-4.0735-4.7524-4.2432-2.0368-4.5827-0.84864-3.2248-0.16973-3.3946-2.5459-3.9038-4.5827-2.5459-2.3762-0.84865-3.2248 2.7157-2.2065 0.67891-2.0368-0.67891-1.0184 2.5459-0.67891 0.16973-3.9038-0.84864-4.9221-4.9222-0.84865 0.16973-4.0735 2.7157-3.734 0.84864-5.6011 3.0551-0.33945 6.4497 2.0368 5.7708 0.84864 7.6378 1.0184h4.413l4.7524-1.5276 1.0184-4.2432 1.3578-4.0735 1.0184-6.4497 4.2432-0.16973 1.6973-2.0368-1.1881-2.3762 2.8854-1.3578 1.1881-3.3946" style="fill:none;stroke-linecap:round;stroke-linejoin:round;stroke-width:1.063;stroke:#999999"/>
  <path d="m501.82 532.48 0.84864-2.7157-3.3946-3.2249-4.7524 1.867-4.0735-2.0368 0.50919-4.7524 3.5643-3.2249 1.0184-2.5459 0.16973-2.5459 4.5827 2.3762 2.8854 3.734 4.0735 2.8854 0.50919 3.0551 0.84865 3.5643 3.734 3.2249" style="fill:none;stroke-linecap:round;stroke-linejoin:round;stroke-width:1.063;stroke:#999999"/>
  <path d="m538.14 448.81-3.3946 2.2065-6.28 3.734-0.84864 3.734 2.0368 2.5459v3.734l-3.5643 0.67892-0.84864 4.0735-0.84865 3.9038c-0.18345 0.73381 0.0635 0.67892-0.33946 0.67892" style="fill:none;stroke-linecap:round;stroke-linejoin:round;stroke-width:1.063;stroke:#999999"/>
  <path d="m524.22 474.1-3.734 1.5276-3.3946 0.50919 4.5827 1.867" style="fill:none;stroke-linecap:round;stroke-linejoin:round;stroke-width:1.063;stroke:#999999"/>
  <path d="m522.69 478.51-0.67892-0.16973" style="fill:none;stroke-linecap:round;stroke-linejoin:round;stroke-width:1.063;stroke:#999999"/>
  <path d="m521.67 478 4.413 2.8854 3.2249 3.0551-2.7157 3.2249-1.3578 3.734-3.5643 0.84865-4.2432 0.33945-2.2065 1.3578 0.67892 4.9221 4.0735 3.2249 4.0735 2.5459 3.9038 2.3762-1.3578 2.2065-0.67892 2.5459 1.6973 1.5276v2.5459l-1.7538 4.5019" style="fill:none;stroke-linecap:round;stroke-linejoin:round;stroke-width:1.063;stroke:#999999"/>
  <path d="m515.06 421.14-6.4497-0.50919-5.2616 1.6973-1.5276 1.867-3.734 0.67892" style="fill:none;stroke-linecap:round;stroke-linejoin:round;stroke-width:1.063;stroke:#999999"/>
  <path d="m498.03 424.89-3.1723 1.0021-0.33946 6.28 0.33946 7.1286-5.6011 0.50919-7.6378-0.50919-6.6194 0.16973-2.8854 1.1881-0.33946 6.6194 5.4313 0.16973 5.0919-1.6973h2.7157l-1.3578 4.413-2.5459 5.0919-2.2065 2.7157 1.3578 3.2249 3.2248 0.84864 0.84865 3.2249 3.0551 2.0368-2.2065 2.3762-5.4313 2.5459-5.2616 2.8854-1.5276 1.3578v2.8854l4.5827-2.3762 6.6194-1.6973 3.5643 0.33946 1.1881 4.2432 2.8854-1.5276 1.867-2.5459 1.5276-2.8854 2.2065-2.3762 2.5459-1.0184 2.8854 2.0368h5.2616l4.413 0.50919 4.6395 3.9846" style="fill:none;stroke-linecap:round;stroke-linejoin:round;stroke-width:1.063;stroke:#999999"/>
  <path d="m515.42 421.12-0.36381 4.7686 3.0551 0.50919 0.84865 3.0551 1.6973 2.5459-1.0184 4.5827 0.16973 3.5643-2.5459 2.0368-3.2248 0.67891-0.33946 5.0919 0.16973 4.413-2.7157-1.6973-2.5459-0.33946-1.6973 2.0368-1.5276 1.6973 2.0368 1.867 3.3946 0.50919 0.33945 3.0551 5.6011 2.5459 1.0184-3.3946 2.3762 0.33946-0.16973 2.7157 4.0735 1.5276 3.2249-2.2065 0.33946-2.3356" style="fill:none;stroke-linecap:round;stroke-linejoin:round;stroke-width:1.063;stroke:#999999"/>
  <path d="m458.54 553.7 2.0368-5.6011 5.2616-5.4313" style="fill:none;stroke-linecap:round;stroke-linejoin:round;stroke-width:1.063;stroke:#999999"/>
  <path d="m465.83 543.01 3.734-3.3946-0.67892-3.3946 0.16973-4.413-5.0919-1.5276-4.0735 0.16972 0.33946-7.2984 5.0919-0.67892 5.6011-1.0184 2.2065-2.2065 2.5459-2.2065 1.3578-3.3946 0.67892-3.9038 0.33946-6.4497-1.6973-3.0551-4.2432-1.6973-3.5643-2.2065-1.0184-5.2616 1.867-4.9222 1.6973-4.2432 1.8751-2.6268" style="fill:none;stroke-linecap:round;stroke-linejoin:round;stroke-width:1.063;stroke:#999999"/>
  <path d="m478.9 457.97-7.1286 7.4681-2.8854 0.84864-5.6011-1.1881-3.2249 1.1881 1.0184-7.8075-1.1881-4.0735-2.0368-1.867-4.7524 3.734-4.413 2.3762-1.867 2.3762-2.5459 5.9405-1.1881 3.734-3.0551 3.5643-1.6973 4.9221-3.2248 6.28-4.2432 0.84865-1.3578 3.2249-2.2065 0.67891-0.33946 3.0551 3.2248 1.1881 2.7157 2.3762-2.5459 3.2249 0.84865 4.413 0.67891 4.5827 1.0184 1.0184 5.6011 1.3578 5.9405-2.3762 5.9405 1.5276 5.2616 3.734 8.6562 0.33946 7.1286-1.3578c0.28288 0.11315 0.56576 0.22631 0.84865 0.33946" style="fill:none;stroke-linecap:round;stroke-linejoin:round;stroke-width:1.063;stroke:#999999"/>
  <path d="m476.53 515.17-4.413-1.6973" style="fill:none;stroke-linecap:round;stroke-linejoin:round;stroke-width:1.063;stroke:#999999"/>
  <path d="m348.55 560.66 3.734-5.2616 4.0735-4.7524 4.9221-2.7157 4.413-3.2248 7.6378 1.867 6.9589-2.2065c-0.0566-0.22631-0.11316-0.45261-0.16973-1.1881l3.9038-6.28 4.7524-2.7157 7.6378 1.6973h1.0184l9.1654 4.9222 8.8259 1.6973 10.074-0.89899 1.4678-1.647 4.0735-1.3578 4.2432-1.5276 1.1881-2.7157 2.2065 2.3762 1.6973 3.2248 2.3762 3.5643 2.3762 3.734 2.8854 5.2616 1.1881-4.413 1.0184-4.9221 2.0368-4.9222 3.0551-4.0735 2.3762-2.2065 2.0368-1.3578" style="fill:none;stroke-linecap:round;stroke-linejoin:round;stroke-width:1.063;stroke:#999999"/>
  <path d="m439.87 473.42-2.5459-1.6973-5.0919 1.6973-4.0735 4.0735-3.0551 2.7157h-3.5643l-2.2065-3.2249-1.6973-5.7708-3.3946-0.33946-1.3578 4.9222-2.0368 3.9038-3.2248 4.413-2.2065-1.3578-3.0551-2.8854-1.5276-4.413-1.5276-4.7524-2.7157-3.0551 0.50919-4.2432-0.16973-5.2616 1.0184-5.0919 0.84865-5.4313 0.84864-5.4313 4.7524-0.67892 3.2249-1.3578 1.5276-3.5643 0.33946-4.5827 2.2065-3.0551 3.734-3.3946 1.0184-2.8854v-5.2616l2.8854-2.8854 3.0551 4.2432 1.1881 3.3946 0.84865 4.2432 2.2065 5.7708 1.6973 5.0919 3.3946 5.2616 3.734 4.7524 4.7524 3.2249 5.2616 0.50919 1.1881 0.84864 1.5276 3.2249 1.9864 2.6968" style="fill:none;stroke-linecap:round;stroke-linejoin:round;stroke-width:1.063;stroke:#999999"/>
  <path d="m446.31 451.35-0.16973-5.9405 1.3578-6.9589 0.67892-4.0735 6.7892 1.1881 3.9038 0.84864 1.5276-1.3578-0.33946-5.7708-1.5276-6.7892-0.67892-6.6194-1.0184-5.6011-1.3578-5.4313-3.5643-3.734-0.50919-3.734-1.6973 2.0368-3.9038 1.1881-6.6194 2.8854-5.9405 2.5459-4.0735 1.6973-5.9405 2.7157-4.0735 1.6973v-2.8854" style="fill:none;stroke-linecap:round;stroke-linejoin:round;stroke-width:1.063;stroke:#999999"/>
  <path d="m419.2 409.21-0.044-3.514 4.2432-3.0551-0.16973-2.3762-3.9038 0.50919-3.3946 2.5459h-3.5643l-4.2432-3.3946-1.6973-5.4313 0.84865-4.413 3.9038-3.3946 2.3762-3.0551-0.84865-2.3762-3.0551-1.1881 3.0551-1.6973 3.2249-0.67892 0.67892-2.3762-3.2249-0.50919h-3.0551l-1.867-0.16973-1.3578-2.5459-2.7157-2.0368-0.50918-2.3762-3.9038-0.67892-2.3762 2.5459-1.3578 2.2065-3.2248-1.867-2.3762 2.7157-3.5643 4.5827-2.5459 1.3578-2.2065-3.0551-3.3946-6.6194-0.16973-3.734-2.7157-2.8854-2.5459-0.50919-4.2432 7.9773-3.5643 6.6194-8.3167 9.1654-7.6378 9.8443-4.9222 4.5827-33.776 40.565-10.863 15.106-2.3762 3.9038 3.2249 4.2432 1.1881 4.9221 3.734 3.0551 6.1102-1.0184 3.5643-2.5459 7.9773-0.16973 8.9956 1.867 1.0184 5.0919 3.0551 4.7524 3.2248 3.0551 5.7708 3.5643 6.6194 1.1881 4.0735-1.5276 3.734-3.9038 4.7524-3.2248 3.734-1.867 2.0368-3.9038 1.6973-5.2616 8.8259-0.33946 7.6378 0.33946h7.8075" style="fill:none;stroke-linecap:round;stroke-linejoin:round;stroke-width:1.063;stroke:#999999"/>
  <path d="m318.68 537.07 4.2432-4.7524 2.0368-6.28 3.5643-3.5643 2.7157-0.50919 1.5276-6.9589 3.3946-3.2249-1.5276-4.413 1.867-3.3946 1.1881-4.5827 3.0551 1.0184 1.1881 5.0919 3.3946 1.5276 2.8854-1.1881-0.50919-5.0919 2.8854-3.9038 3.9038-2.8854 3.734-0.84865 1.3578-2.3762h1.5276l1.1881 4.7524 2.8854 0.16973 1.6973-3.0551 1.0184-1.867-1.6973-1.867 2.0368-3.3946 3.2249-1.867-0.67892-4.2432-2.0368-2.0368" style="fill:none;stroke-linecap:round;stroke-linejoin:round;stroke-width:1.063;stroke:#999999"/>
  <path d="m220.24 487.34-0.67891-4.9222 6.28-8.4865 3.9038-4.5827 2.8854-6.6194 1.867-2.0368-1.867-1.6973 2.2065-5.2616 2.5459-3.2248 3.734-3.9038 2.8854 3.2248 2.5459 2.7157 1.3578 4.7524 3.734 5.6011 3.5643 2.8854 6.1102 2.7157 4.413 1.0184 1.3578-2.0368 2.5459 0.50919 0.67892 2.0368 4.0735 0.16973 3.0551 3.5643 1.0184-3.9038 1.0184-4.413 2.7157-2.3762 1.0184-5.0919 3.5643-8.3167 1.1881-4.5827-2.2065-5.6011-4.5827-2.7157-0.50919-2.8854 2.8854-3.0551 4.9221-5.4313 6.6194 1.3578 4.7524 1.0184 2.0368 1.867v4.2432l3.2249 2.2065 4.0735 1.6973 1.2851 2.8127" style="fill:none;stroke-linecap:round;stroke-linejoin:round;stroke-width:1.063;stroke:#999999"/>
  <path d="m335.31 410.96-8.147-3.734-8.3167 10.184-3.2248 6.7892-4.413-1.867-0.50919-7.2984-2.7157-3.0551-3.734 0.33946-4.0735-5.2616-4.0735-4.2432-2.3762-2.0368-3.2248 1.3578-3.0551-2.5459-0.67892-4.5827 1.867-2.8854 3.734-1.867-0.67892-1.6973-5.7708-0.84865-4.413-0.16973-4.9222-0.50918-1.6973 2.3762-0.50919 7.1286-5.2616-0.84865-5.2616-0.33945-3.734 0.50918 0.67891 2.3762 7.1286 5.6011 2.0368 2.0368-3.3946 2.8854 3.9038 3.5643 7.1286 4.9221-2.8854 4.0735-3.2249 3.9038 0.67892 5.2616 3.734 2.3762 4.7281 1.1962" style="fill:none;stroke-linecap:round;stroke-linejoin:round;stroke-width:1.063;stroke:#999999"/>
  <path d="m276.49 387.05-2.4489-2.74 0.16973-3.734 3.0551-3.0551-2.0368-4.9222-5.2616-1.5276-6.6194-0.84865-5.9405 1.3578-5.0919 4.7524-4.7524 2.2065-2.7157-0.67891-2.3762-5.0919-4.7524-1.5276-2.5459-4.5827 1.5276-3.9038-6.28-1.0184-8.4865 1.867-7.1286 2.0368-3.734-4.7524-3.3946-4.9222-0.50918-3.5643-2.3762 3.2248-2.8854 3.5643-0.33946 5.2616 1.0184 8.4865 3.0551 3.0551 5.7708 3.2248 5.6011 1.0184 6.7892 1.867 0.33946 2.3762-3.3946 3.9038-0.16973 5.0919 2.8854 4.5827-0.50919 5.4313-0.84864 3.3946-5.4313 3.9038-7.8075-1.3578-7.1286-1.0184-9.5048-1.6973-9.6746 0.67892-4.0735-1.1881-3.9038 2.7157-5.4313 2.2065-3.2248 3.2249-2.7157 5.0919-4.2432-2.7157-7.4681-6.7892-3.734-0.16973-6.6194 0.50919-3.9038-3.0551-5.7708 1.867-9.8443 3.0551-3.734 3.9038-4.5827 7.8075-5.6011 7.1286-1.1881 4.9222v2.5459l4.9221 4.0735 7.2984 4.7524-7.1286 0.33946-5.4313 1.1881" style="fill:none;stroke-linecap:round;stroke-linejoin:round;stroke-width:1.063;stroke:#999999"/>
  <path d="m105.16 449.15 1.867-0.33945" style="fill:none;stroke-linecap:round;stroke-linejoin:round;stroke-width:1.063;stroke:#999999"/>
  <path d="m40.153 487.17 18.331-14.427 4.2432 3.9038 4.5827 2.2065 12.221-1.867 1.3578-6.6194 0.16972-10.863 5.2616-0.33946 3.0551-2.5459 5.4313-0.67892 1.0184-2.8854m0 0 5.9405-0.16973 4.0735-4.413" style="fill:none;stroke-linecap:round;stroke-linejoin:round;stroke-width:1.063;stroke:#999999"/>
  <path d="m151.86 289.77 5.0675 1.6973 11.372 5.4313 7.4681 1.0184 8.6562 0.84865 9.5048 0.33946 3.734 7.8075 2.5459 7.8075 0.84864 3.5643 2.3762 3.9038 4.2432 9.5048 4.7524 7.6378 0.67892 3.2248-4.0735 3.0551-2.7157 2.8854 0.80468 3.9983" style="fill:none;stroke-linecap:round;stroke-linejoin:round;stroke-width:1.063;stroke:#999999"/>
  <path d="m202.75 321 3.5643-8.8259 3.5643-6.7892 5.7708-6.4497 4.7524-5.2616 4.9222 2.5459 6.4497-0.33946 5.4313 3.5643 10.693-1.0184 7.1286-1.1881c0.28288-0.16973 0.56576-0.33946 0.84865-0.50919" style="fill:none;stroke-linecap:round;stroke-linejoin:round;stroke-width:1.063;stroke:#999999"/>
  <path d="m508.13 263.93-10.556 0.0445-2.7157 11.881-5.0919 8.8259-4.413 6.7892-2.0368 7.8076h-4.7524l-1.3578 9.5048-3.3946 5.7708 8.4865 3.734 12.22 1.0184 5.0919 0.67892-6.4497 2.0368-5.0919-0.33946-5.4313 3.734 3.734 3.3946 9.8443 2.3762 2.3762 4.0735 1.0184 4.7524 6.4497 3.3946 3.3946 4.413 3.734-5.4313h8.4865l5.0919-6.7892 6.1102-1.0184" style="fill:none;stroke-linecap:round;stroke-linejoin:round;stroke-width:1.063;stroke:#999999"/>
  <path d="m423.14 400.26 4.1678-6.6197 4.7524-4.7524 1.0184-5.7708m0 0 1.3578-3.734 5.0919-4.7524 7.1286-6.7892 5.7708-7.4681 5.4313-9.1654 2.3762-5.0919 6.7892 4.413 10.523 6.1102m0 0 3.734 1.3578 2.7157-4.413 0.33946-6.1102" style="fill:none;stroke-linecap:round;stroke-linejoin:round;stroke-width:1.063;stroke:#999999"/>
  <path d="m484.25 347.43 3.8156 3.1057 0.67892 6.1102 3.0551 2.0368 5.0919 2.0368 7.4681 6.1102 5.0919 6.1102 4.413-2.3762 1.6973 8.4865 0.33946 6.7892-2.3762 9.5048-0.67891 5.7708 0.33945 4.413 4.0735 5.4313 2.7157 7.1286-4.413 3.0551" style="fill:none;stroke-linecap:round;stroke-linejoin:round;stroke-width:1.063;stroke:#999999"/>
  <path d="m460.03 346.06-12.353-6.3932-6.4497-0.33946-3.3946-4.413-8.8259-1.0184-1.0184-3.734 5.7708-3.3946 8.8259-2.0368 4.0735-2.7157-1.6973-5.7708v-3.0551l10.184 4.413m0 0 5.7041 5.5202h8.147l-1.2911 6.3608 4.7524 7.8076 5.0919 6.1102 6.7136 4.023" style="fill:none;stroke-linecap:round;stroke-linejoin:round;stroke-width:1.063;stroke:#999999"/>
  <path d="m469.06 323.14 6.7892 1.9361 4.413 3.734 4.413-1.3578" style="fill:none;stroke-linecap:round;stroke-linejoin:round;stroke-width:1.063;stroke:#999999"/>
  <path d="m488.07 350.19 3.3946-3.734-2.7157-3.0551 1.3578-3.3946 4.7524 2.3762 1.3578 1.3578 3.4197-3.621" style="fill:none;stroke-linecap:round;stroke-linejoin:round;stroke-width:1.063;stroke:#999999"/>
  <path d="m509.48 347.82 4.0484 5.0919 2.7157 5.7708-0.67892 4.0735-1.0184 7.4681" style="fill:none;stroke-linecap:round;stroke-linejoin:round;stroke-width:1.063;stroke:#999999"/>
  <path d="m373.33 362.07 4.7524-6.4497m0 0 6.7892-6.4497 4.7524-8.4865 4.7524 2.0368m0 0 3.734-8.147m0 0 4.7524-3.0551 2.3762-5.7708 4.413 2.7157-1.3578 4.7524 3.3946 6.4497 5.7708 4.0735 4.7524-3.734 9.5048 5.0919 4.413 3.0551 5.4313-8.4865" style="fill:none;stroke-linecap:round;stroke-linejoin:round;stroke-width:1.063;stroke:#999999"/>
  <path d="m470.76 234.44-4.413 2.7157h-8.4865l-7.1286 4.0735-7.8076 5.4313 1.3578 5.0919 5.7708 5.7708 5.7708 4.413 3.0551 2.3762h5.4313l-0.33946 6.4497-9.1654 9.1654 0.67891 4.413 3.3946 2.0368 7.1286-2.7157m0 0 4.0735 2.7157 5.0919 6.4497-3.0551 4.413c-0.56577-0.11315-1.1315-0.22631-1.6973-0.33946" style="fill:none;stroke-linecap:round;stroke-linejoin:round;stroke-width:1.063;stroke:#999999"/>
  <path d="m470.46 296.9-2.7559 2.0368-1.6973 6.7892m0 0 2.0368 1.6973 7.2902 4.324" style="fill:none;stroke-linecap:round;stroke-linejoin:round;stroke-width:1.063;stroke:#999999"/>
  <path d="m410.62 300.99 4.5761 2.0869 11.768-6.5126 9.8443-1.0184 9.5048-0.67891 6.4497 3.3946 9.5048 7.4681 3.734 0.33945" style="fill:none;stroke-linecap:round;stroke-linejoin:round;stroke-width:1.063;stroke:#999999"/>
  <path d="m442.94 246.69-20.384-0.71139-2.3762 3.734m0 0-2.7157 2.0368m0 0 9.5048 11.542 4.7524 7.8076 4.0735 7.4681 6.1102 10.523m0 0 6.2861 6.6885" style="fill:none;stroke-linecap:round;stroke-linejoin:round;stroke-width:1.063;stroke:#999999"/>
  <path d="m595 307.45-0.67892-6.1427 2.7157-6.7892-0.67892-8.4865 3.3946-0.67892v-3.0551l-2.7157-1.0184 1.3578-8.4865" style="fill:none;stroke-linecap:round;stroke-linejoin:round;stroke-width:1.063;stroke:#999999"/>
  <path d="m336.33 317.61 2.7157 8.147-5.0919 0.33946-6.4497 1.3578-1.3578 6.4497 0.67892 6.4497h8.8259l4.0735 1.3578h7.1286l3.0551 2.7157-1.3578 5.4313-10.863 1.0184-3.3946-2.3762-10.184 3.3946-6.7892 3.0551-14.936 6.1102-4.0735-4.0735-4.7524-3.0551-1.6973-4.0735 2.3762-1.3578 7.8075 5.0919 5.0919 0.67892 6.1102-3.734 3.3946-2.3762-3.0551-3.734h-5.4313l-2.0368-2.7157 2.7157-4.0735-6.7892-5.0919 8.147-7.1286 7.1286-2.7157 7.8075 3.3946z" style="fill:none;stroke-linecap:round;stroke-linejoin:round;stroke-width:1.063;stroke:#999999"/>
  <path d="m298.95 279.87-5.0474 6.5062-4.7524 6.1102-5.0919 6.7892 5.4313 8.8259 8.8259 5.7708 10.523 1.0184 7.8075 3.3946 0.3522 4.2366" style="fill:none;stroke-linecap:round;stroke-linejoin:round;stroke-width:1.063;stroke:#999999"/>
  <path d="m330.22 282.98-0.67892 12.22-2.0368 11.881v9.8443l0.0629 7.0407" style="fill:none;stroke-linecap:round;stroke-linejoin:round;stroke-width:1.063;stroke:#999999"/>
  <path d="m336.39 317.57 5.7075-2.3384 8.147 2.3762 3.3946-1.3578 6.1102-1.3578-1.3578-2.3762-4.0735-2.0368-0.33946-5.0919 0.67892-6.1102 0.33945-7.4681 3.734 4.0735 6.1102 1.0184 6.1102 0.33946 2.3762-1.0184" style="fill:none;stroke-linecap:round;stroke-linejoin:round;stroke-width:1.063;stroke:#999999"/>
  <path d="m370.62 297.58 1.6973 3.3946 5.4313 1.6973 6.1102 3.0551-1.3578 4.413-3.734 3.3946v3.3946l6.4497-0.33946-0.33946 4.413-3.3946 3.3946-3.734 2.3762-6.1102 1.6973-9.5048 6.1102-3.0551-3.3946-2.3762-2.3762-4.0735-1.6973-1.0184-4.7524-1.0936-4.6768" style="fill:none;stroke-linecap:round;stroke-linejoin:round;stroke-width:1.063;stroke:#999999"/>
  <path d="m286.09 345.1 6.7892-2.0368 9.1904-10.523" style="fill:none;stroke-linecap:round;stroke-linejoin:round;stroke-width:1.063;stroke:#999999"/>
  <path d="m302.17 361.04-6.2394 2.7319-9.8443 4.7524-2.0368-5.4313-4.4694-4.1462" style="fill:none;stroke-linecap:round;stroke-linejoin:round;stroke-width:1.063;stroke:#999999"/>
  <path d="m286.03 368.56-3.6776 0.30698-0.67891 4.7524 5.7708 0.33946 6.4497-2.7157h5.7708l1.3578 3.734 4.0735 2.0368 4.7524-1.0184 1.0184 6.1102-1.3578 2.7157-6.7892 3.0551-10.052 2.1895" style="fill:none;stroke-linecap:round;stroke-linejoin:round;stroke-width:1.063;stroke:#999999"/>
  <path d="m316.98 355.29 6.1102 7.4681 3.0551 5.4313 8.8259-1.3578 7.8075 4.0735 1.0184 5.7708-2.7157 6.1103-2.0368 6.1102-2.7157 2.7157 8.147 7.8076" style="fill:none;stroke-linecap:round;stroke-linejoin:round;stroke-width:1.063;stroke:#999999"/>
  <path d="m337.01 391.27h-6.1102l-7.4681-2.3762-6.7892-4.0735-8.8259 5.0919-4.7524 2.0368-1.6973-2.0368 0.30699-1.8264" style="fill:none;stroke-linecap:round;stroke-linejoin:round;stroke-width:1.063;stroke:#999999"/>
  <path d="m392.68 211.69 4.7524 9.5048 7.8075 10.523 7.4681 11.542 4.5888 8.1593" style="fill:none;stroke-linecap:round;stroke-linejoin:round;stroke-width:1.063;stroke:#999999"/>
  <path d="m392.34 267.37 3.3946-8.4865 5.0919-4.413h11.202l5.4186-2.8287" style="fill:none;stroke-linecap:round;stroke-linejoin:round;stroke-width:1.063;stroke:#999999"/>
  <path d="m349.91 343.74 3.734-2.0368 7.4681 4.413 11.681 0.69359 6.3136-2.2231 1.5117 2.312-2.312 8.4477" style="fill:none;stroke-linecap:round;stroke-linejoin:round;stroke-width:1.063;stroke:#999999"/>
  <path d="m236.19 362.92 2.5459-2.0368 15.445 0.50919 6.28-0.16973 7.1286 1.0184 5.7708-0.33946 1.5276-2.5459 4.5827-0.50918" style="fill:none;stroke-linecap:round;stroke-linejoin:round;stroke-width:1.063;stroke:#999999"/>
  <path d="m255.88 296.56 5.2616-2.5459h3.734l1.6973 3.734-0.16973 4.0735 1.0184 4.5827 1.1881 2.7157 3.734-0.67892 1.5276-1.1881 3.734 5.2616 1.3578 5.2616 0.84865 6.4497-0.50919 6.6194 2.3762 3.3946 0.16973 3.5643 1.0184 4.0735 1.5276 3.2248h2.2065" style="fill:none;stroke-linecap:round;stroke-linejoin:round;stroke-width:1.063;stroke:#999999"/>
  <path d="m495.54 513.08-4.3806 0.30004-4.5006 1.0201-4.8607 0.90012-2.8204 0.60009-3.0004-0.84012" style="fill:none;stroke-linecap:round;stroke-linejoin:round;stroke-width:1.063;stroke:#999999"/>
  <path d="m415.35 303.06 5.3092 2.8382 3.6982 1.9781 3.7676 2.2426" style="fill:none;stroke-linecap:round;stroke-linejoin:round;stroke-width:1.063;stroke:#999999"/>
  <path d="m405.3 325.8 13.377-13.543" style="fill:none;stroke-linecap:round;stroke-linejoin:round;stroke-width:1.063;stroke:#999999"/>
  <path d="m418.65 312.26 5.104 0.43003 4.5583-2.5802" style="fill:none;stroke-linecap:round;stroke-linejoin:round;stroke-width:1.063;stroke:#999999"/>
  <path d="m428.65 310.11 5.5044-0.43002" style="fill:none;stroke-linecap:round;stroke-linejoin:round;stroke-width:1.063;stroke:#999999"/>
  <path d="m434.5 309.77-6.1924 5.9344 0.25802 2.6662 0.68804 0.77405 1.0321 1.1181 2.4942-0.51603 0.25802 2.6662-0.60204 1.2901 0.77405 0.34402 1.3761-0.086 1.8921-1.5481 1.5481-2.2361 1.6341-0.94606 1.2041 0.17201 1.5481-1.6341 2.4082-1.0321" style="fill:none;stroke-linecap:round;stroke-linejoin:round;stroke-width:1.063;stroke:#999999"/>
  <path d="m378.04 344.95-6.3136-16.184" style="color:#000000;fill:none;stroke-linecap:round;stroke-linejoin:round;stroke-width:1.063;stroke:#999999"/>
 </g>
 <g transform="translate(0 6.0314)">
  <text x="411.01529" y="610.28302" style="fill:#000000;font-family:'DejaVu Sans';letter-spacing:0px;line-height:0%;word-spacing:0px" xml:space="preserve"><tspan x="411.01529" y="610.28302" style="font-size:11px;line-height:1.25">46</tspan></text>
  <text x="474.69135" y="581.039" style="fill:#000000;font-family:'DejaVu Sans';letter-spacing:0px;line-height:0%;word-spacing:0px" xml:space="preserve"><tspan x="474.69135" y="581.039" style="font-size:11px;line-height:1.25">47</tspan></text>
  <text x="514.72516" y="565.08954" style="fill:#000000;font-family:'DejaVu Sans';letter-spacing:0px;line-height:0%;word-spacing:0px" xml:space="preserve"><tspan x="514.72516" y="565.08954" style="font-size:11px;line-height:1.25">49</tspan></text>
  <text x="473.62427" y="544.6485" style="fill:#000000;font-family:'DejaVu Sans';letter-spacing:0px;line-height:0%;word-spacing:0px" xml:space="preserve"><tspan x="473.62427" y="544.6485" style="font-size:11px;line-height:1.25">48</tspan></text>
  <text x="541.55084" y="541.12732" style="fill:#000000;font-family:'DejaVu Sans';letter-spacing:0px;line-height:0%;word-spacing:0px" xml:space="preserve"><tspan x="541.55084" y="541.12732" style="font-size:11px;line-height:1.25">52</tspan></text>
  <text x="586.92749" y="545.80188" style="fill:#000000;font-family:'DejaVu Sans';letter-spacing:0px;line-height:0%;word-spacing:0px" xml:space="preserve"><tspan x="586.92749" y="545.80188" style="font-size:11px;line-height:1.25">53</tspan></text>
  <text x="577.44879" y="500.73782" style="fill:#000000;font-family:'DejaVu Sans';letter-spacing:0px;line-height:0%;word-spacing:0px" xml:space="preserve"><tspan x="577.44879" y="500.73782" style="font-size:11px;line-height:1.25">54</tspan></text>
  <text x="534.36115" y="485.88065" style="fill:#000000;font-family:'DejaVu Sans';letter-spacing:0px;line-height:0%;word-spacing:0px" xml:space="preserve"><tspan x="534.36115" y="485.88065" style="font-size:11px;line-height:1.25">51</tspan></text>
  <text x="488.9845" y="497.35349" style="fill:#000000;font-family:'DejaVu Sans';letter-spacing:0px;line-height:0%;word-spacing:0px" xml:space="preserve"><tspan x="488.9845" y="497.35349" style="font-size:11px;line-height:1.25">50</tspan></text>
  <text x="124.03831" y="389.95721" style="fill:#000000;font-family:'DejaVu Sans';letter-spacing:0px;line-height:0%;word-spacing:0px" xml:space="preserve"><tspan x="124.03831" y="389.95721" style="font-size:11px;line-height:1.25">35</tspan></text>
  <text x="146.67455" y="473.96274" style="fill:#000000;font-family:'DejaVu Sans';letter-spacing:0px;line-height:0%;word-spacing:0px" xml:space="preserve"><tspan x="146.67455" y="473.96274" style="font-size:11px;line-height:1.25">34</tspan></text>
  <text x="271.42526" y="501.12619" style="fill:#000000;font-family:'DejaVu Sans';letter-spacing:0px;line-height:0%;word-spacing:0px" xml:space="preserve"><tspan x="271.42526" y="501.12619" style="font-size:11px;line-height:1.25">36</tspan></text>
  <text x="388.88208" y="515.96545" style="fill:#000000;font-family:'DejaVu Sans';letter-spacing:0px;line-height:0%;word-spacing:0px" xml:space="preserve"><tspan x="388.88208" y="515.96545" style="font-size:11px;line-height:1.25">45</tspan></text>
  <text x="414.34598" y="460.0968" style="fill:#000000;font-family:'DejaVu Sans';letter-spacing:0px;line-height:0%;word-spacing:0px" xml:space="preserve"><tspan x="414.34598" y="460.0968" style="font-size:11px;line-height:1.25">44</tspan></text>
  <text x="444.70023" y="494.17319" style="fill:#000000;font-family:'DejaVu Sans';letter-spacing:0px;line-height:0%;word-spacing:0px" xml:space="preserve"><tspan x="444.70023" y="494.17319" style="font-size:11px;line-height:1.25">43</tspan></text>
  <text x="472.91928" y="399.3678" style="fill:#000000;font-family:'DejaVu Sans';letter-spacing:0px;line-height:0%;word-spacing:0px" xml:space="preserve"><tspan x="472.91928" y="399.3678" style="font-size:11px;line-height:1.25">40</tspan></text>
  <text x="408.5387" y="364.15411" style="fill:#000000;font-family:'DejaVu Sans';letter-spacing:0px;line-height:0%;word-spacing:0px" xml:space="preserve"><tspan x="408.5387" y="364.15411" style="font-size:11px;line-height:1.25">39</tspan></text>
  <text x="346.29227" y="376.78125" style="fill:#000000;font-family:'DejaVu Sans';letter-spacing:0px;line-height:0%;word-spacing:0px" xml:space="preserve"><tspan x="346.29227" y="376.78125" style="font-size:11px;line-height:1.25">28</tspan></text>
  <text x="309.12225" y="405.59247" style="fill:#000000;font-family:'DejaVu Sans';letter-spacing:0px;line-height:0%;word-spacing:0px" xml:space="preserve"><tspan x="309.12225" y="405.59247" style="font-size:11px;line-height:1.25">33</tspan></text>
  <text x="277.64334" y="416.44113" style="fill:#000000;font-family:'DejaVu Sans';letter-spacing:0px;line-height:0%;word-spacing:0px" xml:space="preserve"><tspan x="277.64334" y="416.44113" style="font-size:11px;line-height:1.25">37</tspan></text>
  <text x="285.4686" y="384.60651" style="fill:#000000;font-family:'DejaVu Sans';letter-spacing:0px;line-height:0%;word-spacing:0px" xml:space="preserve"><tspan x="285.4686" y="384.60651" style="font-size:11px;line-height:1.25">32</tspan></text>
  <text x="310.54501" y="374.82495" style="fill:#000000;font-family:'DejaVu Sans';letter-spacing:0px;line-height:0%;word-spacing:0px" xml:space="preserve"><tspan x="310.54501" y="374.82495" style="font-size:11px;line-height:1.25">30</tspan></text>
  <text x="232.47021" y="336.23215" style="fill:#000000;font-family:'DejaVu Sans';letter-spacing:0px;line-height:0%;word-spacing:0px" xml:space="preserve"><tspan x="232.47021" y="336.23215" style="font-size:11px;line-height:1.25">31</tspan></text>
  <text x="488.59305" y="459.04761" style="fill:#000000;font-family:'DejaVu Sans';letter-spacing:0px;line-height:0%;word-spacing:0px" xml:space="preserve"><tspan x="488.59305" y="459.04761" style="font-size:11px;line-height:1.25">42</tspan></text>
  <text x="561.50671" y="435.99463" style="fill:#000000;font-family:'DejaVu Sans';letter-spacing:0px;line-height:0%;word-spacing:0px" xml:space="preserve"><tspan x="561.50671" y="435.99463" style="font-size:11px;line-height:1.25">55</tspan></text>
  <text x="622.33722" y="401.77097" style="fill:#000000;font-family:'DejaVu Sans';letter-spacing:0px;line-height:0%;word-spacing:0px" xml:space="preserve"><tspan x="622.33722" y="401.77097" style="font-size:11px;line-height:1.25">56</tspan></text>
  <text x="582.01398" y="391.2684" style="fill:#000000;font-family:'DejaVu Sans';letter-spacing:0px;line-height:0%;word-spacing:0px" xml:space="preserve"><tspan x="582.01398" y="391.2684" style="font-size:11px;line-height:1.25">57</tspan></text>
  <text x="517.73657" y="399.36786" style="fill:#000000;font-family:'DejaVu Sans';letter-spacing:0px;line-height:0%;word-spacing:0px" xml:space="preserve"><tspan x="517.73657" y="399.36786" style="font-size:11px;line-height:1.25">41</tspan></text>
  <text x="547.61499" y="381.4053" style="fill:#000000;font-family:'DejaVu Sans';letter-spacing:0px;line-height:0%;word-spacing:0px" xml:space="preserve"><tspan x="547.61499" y="381.4053" style="font-size:11px;line-height:1.25">58</tspan></text>
  <text x="591.54321" y="349.03714" style="fill:#000000;font-family:'DejaVu Sans';letter-spacing:0px;line-height:0%;word-spacing:0px" xml:space="preserve"><tspan x="591.54321" y="349.03714" style="font-size:11px;line-height:1.25">59</tspan></text>
  <text x="475.76483" y="338.89987" style="fill:#000000;font-family:'DejaVu Sans';letter-spacing:0px;line-height:0%;word-spacing:0px" xml:space="preserve"><tspan x="475.76483" y="338.89987" style="font-size:11px;line-height:1.25">22</tspan></text>
  <text x="484.83502" y="308.84372" style="fill:#000000;font-family:'DejaVu Sans';letter-spacing:0px;line-height:0%;word-spacing:0px" xml:space="preserve"><tspan x="484.83502" y="308.84372" style="font-size:11px;line-height:1.25">20</tspan></text>
  <text x="540.14545" y="324.31641" style="fill:#000000;font-family:'DejaVu Sans';letter-spacing:0px;line-height:0%;word-spacing:0px" xml:space="preserve"><tspan x="540.14545" y="324.31641" style="font-size:11px;line-height:1.25">61</tspan></text>
  <text x="522.53857" y="308.66586" style="fill:#000000;font-family:'DejaVu Sans';letter-spacing:0px;line-height:0%;word-spacing:0px" xml:space="preserve"><tspan x="522.53857" y="308.66586" style="font-size:11px;line-height:1.25">65</tspan></text>
  <text x="602.74756" y="314.00128" style="fill:#000000;font-family:'DejaVu Sans';letter-spacing:0px;line-height:0%;word-spacing:0px" xml:space="preserve"><tspan x="602.74756" y="314.00128" style="font-size:11px;line-height:1.25">62</tspan></text>
  <text x="606.83801" y="290.34763" style="fill:#000000;font-family:'DejaVu Sans';letter-spacing:0px;line-height:0%;word-spacing:0px" xml:space="preserve"><tspan x="606.83801" y="290.34763" style="font-size:11px;line-height:1.25">63</tspan></text>
  <text x="563.97693" y="287.14639" style="fill:#000000;font-family:'DejaVu Sans';letter-spacing:0px;line-height:0%;word-spacing:0px" xml:space="preserve"><tspan x="563.97693" y="287.14639" style="font-size:11px;line-height:1.25">67</tspan></text>
  <text x="597.94568" y="267.76108" style="fill:#000000;font-family:'DejaVu Sans';letter-spacing:0px;line-height:0%;word-spacing:0px" xml:space="preserve"><tspan x="597.94568" y="267.76108" style="font-size:11px;line-height:1.25">68</tspan></text>
  <text x="550.81622" y="260.11365" style="fill:#000000;font-family:'DejaVu Sans';letter-spacing:0px;line-height:0%;word-spacing:0px" xml:space="preserve"><tspan x="550.81622" y="260.11365" style="font-size:11px;line-height:1.25">69</tspan></text>
  <text x="527.69617" y="230.41321" style="fill:#000000;font-family:'DejaVu Sans';letter-spacing:0px;line-height:0%;word-spacing:0px" xml:space="preserve"><tspan x="527.69617" y="230.41321" style="font-size:11px;line-height:1.25">70</tspan></text>
  <text x="475.94269" y="265.09335" style="fill:#000000;font-family:'DejaVu Sans';letter-spacing:0px;line-height:0%;word-spacing:0px" xml:space="preserve"><tspan x="475.94269" y="265.09335" style="font-size:11px;line-height:1.25">3</tspan></text>
  <text x="494.43875" y="356.50671" style="fill:#000000;font-family:'DejaVu Sans';letter-spacing:0px;line-height:0%;word-spacing:0px" xml:space="preserve"><tspan x="494.43875" y="356.50671" style="font-size:11px;line-height:1.25">21</tspan></text>
  <text x="552.23901" y="345.65805" style="fill:#000000;font-family:'DejaVu Sans';letter-spacing:0px;line-height:0%;word-spacing:0px" xml:space="preserve"><tspan x="552.23901" y="345.65805" style="font-size:11px;line-height:1.25">60</tspan></text>
  <text x="448.02069" y="336.94354" style="fill:#000000;font-family:'DejaVu Sans';letter-spacing:0px;line-height:0%;word-spacing:0px" xml:space="preserve"><tspan x="448.02069" y="336.94354" style="font-size:11px;line-height:1.25">23</tspan></text>
  <text x="413.34055" y="329.11829" style="fill:#000000;font-family:'DejaVu Sans';letter-spacing:0px;line-height:0%;word-spacing:0px" xml:space="preserve"><tspan x="413.34055" y="329.11829" style="font-size:11px;line-height:1.25">24</tspan></text>
  <text x="437.34988" y="309.02158" style="fill:#000000;font-family:'DejaVu Sans';letter-spacing:0px;line-height:0%;word-spacing:0px" xml:space="preserve"><tspan x="437.34988" y="309.02158" style="font-size:11px;line-height:1.25">19</tspan></text>
  <text x="520.76013" y="283.05591" style="fill:#000000;font-family:'DejaVu Sans';letter-spacing:0px;line-height:0%;word-spacing:0px" xml:space="preserve"><tspan x="520.76013" y="283.05591" style="font-size:11px;line-height:1.25">66</tspan></text>
  <text x="575.8927" y="307.77664" style="fill:#000000;font-family:'DejaVu Sans';letter-spacing:0px;line-height:0%;word-spacing:0px" xml:space="preserve"><tspan x="575.8927" y="307.77664" style="font-size:11px;line-height:1.25">64</tspan></text>
  <text x="437.88345" y="272.3851" style="fill:#000000;font-family:'DejaVu Sans';letter-spacing:0px;line-height:0%;word-spacing:0px" xml:space="preserve"><tspan x="437.88345" y="272.3851" style="font-size:11px;line-height:1.25">18</tspan></text>
  <text x="389.50906" y="321.82654" style="fill:#000000;font-family:'DejaVu Sans';letter-spacing:0px;line-height:0%;word-spacing:0px" xml:space="preserve"><tspan x="389.50906" y="321.82654" style="font-size:11px;line-height:1.25">25</tspan></text>
  <text x="361.58713" y="321.47086" style="fill:#000000;font-family:'DejaVu Sans';letter-spacing:0px;line-height:0%;word-spacing:0px" xml:space="preserve"><tspan x="361.58713" y="321.47086" style="font-size:11px;line-height:1.25">26</tspan></text>
  <text x="337.04422" y="337.65494" style="fill:#000000;font-family:'DejaVu Sans';letter-spacing:0px;line-height:0%;word-spacing:0px" xml:space="preserve"><tspan x="337.04422" y="337.65494" style="font-size:11px;line-height:1.25">27</tspan></text>
  <text x="310.36719" y="342.63464" style="fill:#000000;font-family:'DejaVu Sans';letter-spacing:0px;line-height:0%;word-spacing:0px" xml:space="preserve"><tspan x="310.36719" y="342.63464" style="font-size:11px;line-height:1.25">29</tspan></text>
  <text x="263.16107" y="260.26251" style="fill:#000000;font-family:'DejaVu Sans';letter-spacing:0px;line-height:0%;word-spacing:0px" xml:space="preserve"><tspan x="263.16107" y="260.26251" style="font-size:11px;line-height:1.25">9</tspan></text>
  <text x="285.4686" y="272.74081" style="fill:#000000;font-family:'DejaVu Sans';letter-spacing:0px;line-height:0%;word-spacing:0px" xml:space="preserve"><tspan x="285.4686" y="272.74081" style="font-size:11px;line-height:1.25">10</tspan></text>
  <text x="300.94128" y="302.61908" style="fill:#000000;font-family:'DejaVu Sans';letter-spacing:0px;line-height:0%;word-spacing:0px" xml:space="preserve"><tspan x="300.94128" y="302.61908" style="font-size:11px;line-height:1.25">11</tspan></text>
  <text x="313.39056" y="273.80789" style="fill:#000000;font-family:'DejaVu Sans';letter-spacing:0px;line-height:0%;word-spacing:0px" xml:space="preserve"><tspan x="313.39056" y="273.80789" style="font-size:11px;line-height:1.25">12</tspan></text>
  <text x="337.75562" y="287.85779" style="fill:#000000;font-family:'DejaVu Sans';letter-spacing:0px;line-height:0%;word-spacing:0px" xml:space="preserve"><tspan x="337.75562" y="287.85779" style="font-size:11px;line-height:1.25">15</tspan></text>
  <text x="374.92563" y="283.41162" style="fill:#000000;font-family:'DejaVu Sans';letter-spacing:0px;line-height:0%;word-spacing:0px" xml:space="preserve"><tspan x="374.92563" y="283.41162" style="font-size:11px;line-height:1.25">16</tspan></text>
  <text x="409.7836" y="280.38821" style="fill:#000000;font-family:'DejaVu Sans';letter-spacing:0px;line-height:0%;word-spacing:0px" xml:space="preserve"><tspan x="409.7836" y="280.38821" style="font-size:11px;line-height:1.25">17</tspan></text>
  <text x="334.37653" y="227.03412" style="fill:#000000;font-family:'DejaVu Sans';letter-spacing:0px;line-height:0%;word-spacing:0px" xml:space="preserve"><tspan x="334.37653" y="227.03412" style="font-size:11px;line-height:1.25">6</tspan></text>
  <text x="349.4935" y="241.43971" style="fill:#000000;font-family:'DejaVu Sans';letter-spacing:0px;line-height:0%;word-spacing:0px" xml:space="preserve"><tspan x="349.4935" y="241.43971" style="font-size:11px;line-height:1.25">13</tspan></text>
  <text x="380.79456" y="248.37575" style="fill:#000000;font-family:'DejaVu Sans';letter-spacing:0px;line-height:0%;word-spacing:0px" xml:space="preserve"><tspan x="380.79456" y="248.37575" style="font-size:11px;line-height:1.25">14</tspan></text>
  <text x="195.46817" y="237.53996" style="fill:#000000;font-family:'DejaVu Sans';letter-spacing:0px;line-height:0%;word-spacing:0px" xml:space="preserve"><tspan x="195.46817" y="237.53996" style="font-size:11px;line-height:1.25">8</tspan></text>
  <text x="424.01135" y="236.8157" style="fill:#000000;font-family:'DejaVu Sans';letter-spacing:0px;line-height:0%;word-spacing:0px" xml:space="preserve"><tspan x="424.01135" y="236.8157" style="font-size:11px;line-height:1.25">4</tspan></text>
  <text x="393.06601" y="190.75334" style="fill:#000000;font-family:'DejaVu Sans';letter-spacing:0px;line-height:0%;word-spacing:0px" xml:space="preserve"><tspan x="393.06601" y="190.75334" style="font-size:11px;line-height:1.25">5</tspan></text>
  <text x="208.63872" y="129.75183" style="fill:#000000;font-family:'DejaVu Sans';letter-spacing:0px;line-height:0%;word-spacing:0px" xml:space="preserve"><tspan x="208.63872" y="129.75183" style="font-size:11px;line-height:1.25">7</tspan></text>
  <text x="358.56369" y="108.94375" style="fill:#000000;font-family:'DejaVu Sans';letter-spacing:0px;line-height:0%;word-spacing:0px" xml:space="preserve"><tspan x="358.56369" y="108.94375" style="font-size:11px;line-height:1.25">1</tspan></text>
  <text x="457.80228" y="190.9312" style="fill:#000000;font-family:'DejaVu Sans';letter-spacing:0px;line-height:0%;word-spacing:0px" xml:space="preserve"><tspan x="457.80228" y="190.9312" style="font-size:11px;line-height:1.25">2</tspan></text>
  <g transform="translate(209.42 458.28)">
   <g transform="translate(48.374 23.12)">
    <path d="m11.031 104.75c-0.6274 0-5.5039 14.162-8.2188 21.688-5.291-2.5132-11.15-5.2879-11.406-5.0312-0.25656 0.25656 2.4872 6.1161 5 11.406-7.5314 2.7166-21.656 7.592-21.656 8.2188s14.125 5.5022 21.656 8.2188c-2.5128 5.2902-5.2566 11.15-5 11.406 0.25661 0.25661 6.1153-2.5181 11.406-5.0312 2.7149 7.5254 7.5914 21.688 8.2188 21.688s5.5039-14.162 8.2188-21.688c5.291 2.5132 11.118 5.2879 11.375 5.0312s-2.4868-6.1153-5-11.406c7.5312-2.7165 21.688-7.592 21.688-8.2188s-14.156-5.5022-21.688-8.2188c2.5132-5.291 5.2566-11.15 5-11.406s-6.084 2.5181-11.375 5.0312c-2.7149-7.5254-7.5914-21.688-8.2188-21.688z" style="color:#000000;fill:#b2b2b2;stroke-linecap:round;stroke-width:.88583;stroke:#999999"/>
    <path d="m11.031 104.93v72.473" style="color:#000000;fill:none;stroke-linecap:round;stroke-width:.88583;stroke:#999999"/>
    <path d="m47.268 141.16h-72.473" style="color:#000000;fill:none;stroke-linecap:round;stroke-width:.88583;stroke:#999999"/>
    <path d="m30.115 160.25-38.167-38.167" style="color:#000000;fill:none;stroke-linecap:round;stroke-width:.88583;stroke:#999999"/>
    <path d="m-8.0523 160.25 38.167-38.167" style="color:#000000;fill:none;stroke-linecap:round;stroke-width:.88583;stroke:#999999"/>
   </g>
   <text x="54.829948" y="123.83087" style="fill:#404040;font-family:'DejaVu Sans';letter-spacing:0px;line-height:0%;word-spacing:0px" xml:space="preserve"><tspan x="54.829948" y="123.83087" style="font-size:11px;line-height:1.25">N</tspan></text>
   <text x="54.829948" y="213.37625" style="fill:#404040;font-family:'DejaVu Sans';letter-spacing:0px;line-height:0%;word-spacing:0px" xml:space="preserve"><tspan x="54.829948" y="213.37625" style="font-size:11px;line-height:1.25">S</tspan></text>
   <text x="10.060536" y="168.10381" style="fill:#404040;font-family:'DejaVu Sans';letter-spacing:0px;line-height:0%;word-spacing:0px" xml:space="preserve"><tspan x="10.060536" y="168.10381" style="font-size:11px;line-height:1.25">W</tspan></text>
   <text x="98.14563" y="168.10381" style="fill:#404040;font-family:'DejaVu Sans';letter-spacing:0px;line-height:0%;word-spacing:0px" xml:space="preserve"><tspan x="98.14563" y="168.10381" style="font-size:11px;line-height:1.25">E</tspan></text>
  </g>
  <text x="13.28119" y="572.87097" style="fill:#000000;font-family:'DejaVu Sans';letter-spacing:0px;line-height:0%;word-spacing:0px" xml:space="preserve"><tspan x="13.28119" y="572.87097" style="font-size:11px;line-height:1.25">Vidhan Sabha constituencies of Delhi</tspan></text>
  <text x="353.60196" y="434.32083" style="fill:#000000;font-family:'DejaVu Sans';letter-spacing:0px;line-height:0%;word-spacing:0px" xml:space="preserve"><tspan x="353.60196" y="434.32083" style="font-size:11px;line-height:1.25">38</tspan></text>
 </g>
</svg>
